solid OpenSCAD_Model
  facet normal 1 -0 0
    outer loop
      vertex 1.5 1.5 70
      vertex 1.5 248.5 1.5
      vertex 1.5 248.5 70
    endloop
  endfacet
  facet normal 1 0 0
    outer loop
      vertex 1.5 248.5 1.5
      vertex 1.5 1.5 70
      vertex 1.5 1.5 1.5
    endloop
  endfacet
  facet normal 0 0 1
    outer loop
      vertex 100 250 70
      vertex 98.5 248.5 70
      vertex 100 0 70
    endloop
  endfacet
  facet normal 0 0 1
    outer loop
      vertex 100 250 70
      vertex 1.5 248.5 70
      vertex 98.5 248.5 70
    endloop
  endfacet
  facet normal 0 0 1
    outer loop
      vertex 1.5 248.5 70
      vertex 0 250 70
      vertex 1.5 1.5 70
    endloop
  endfacet
  facet normal -0 0 1
    outer loop
      vertex 0 250 70
      vertex 1.5 248.5 70
      vertex 100 250 70
    endloop
  endfacet
  facet normal -0 0 1
    outer loop
      vertex 98.5 1.5 70
      vertex 100 0 70
      vertex 98.5 248.5 70
    endloop
  endfacet
  facet normal -0 0 1
    outer loop
      vertex 1.5 1.5 70
      vertex 100 0 70
      vertex 98.5 1.5 70
    endloop
  endfacet
  facet normal 0 0 1
    outer loop
      vertex 1.5 1.5 70
      vertex 0 0 70
      vertex 100 0 70
    endloop
  endfacet
  facet normal 0 0 1
    outer loop
      vertex 0 0 70
      vertex 1.5 1.5 70
      vertex 0 250 70
    endloop
  endfacet
  facet normal 0 0 -1
    outer loop
      vertex 0 0 0
      vertex 100 250 0
      vertex 100 0 0
    endloop
  endfacet
  facet normal -0 0 -1
    outer loop
      vertex 100 250 0
      vertex 0 0 0
      vertex 0 250 0
    endloop
  endfacet
  facet normal -1 0 0
    outer loop
      vertex 0 0 0
      vertex 0 250 70
      vertex 0 250 0
    endloop
  endfacet
  facet normal -1 -0 0
    outer loop
      vertex 0 250 70
      vertex 0 0 0
      vertex 0 0 70
    endloop
  endfacet
  facet normal 0 1 -0
    outer loop
      vertex 100 250 0
      vertex 0 250 70
      vertex 100 250 70
    endloop
  endfacet
  facet normal 0 1 0
    outer loop
      vertex 0 250 70
      vertex 100 250 0
      vertex 0 250 0
    endloop
  endfacet
  facet normal 0 -1 0
    outer loop
      vertex 0 0 0
      vertex 100 0 70
      vertex 0 0 70
    endloop
  endfacet
  facet normal 0 -1 -0
    outer loop
      vertex 100 0 70
      vertex 0 0 0
      vertex 100 0 0
    endloop
  endfacet
  facet normal 1 -0 0
    outer loop
      vertex 100 0 70
      vertex 100 250 0
      vertex 100 250 70
    endloop
  endfacet
  facet normal 1 0 0
    outer loop
      vertex 100 250 0
      vertex 100 0 70
      vertex 100 0 0
    endloop
  endfacet
  facet normal -1 0 0
    outer loop
      vertex 98.5 1.5 1.5
      vertex 98.5 248.5 70
      vertex 98.5 248.5 1.5
    endloop
  endfacet
  facet normal -1 -0 0
    outer loop
      vertex 98.5 248.5 70
      vertex 98.5 1.5 1.5
      vertex 98.5 1.5 70
    endloop
  endfacet
  facet normal 0 1 -0
    outer loop
      vertex 98.5 1.5 1.5
      vertex 1.5 1.5 70
      vertex 98.5 1.5 70
    endloop
  endfacet
  facet normal 0 1 0
    outer loop
      vertex 1.5 1.5 70
      vertex 98.5 1.5 1.5
      vertex 1.5 1.5 1.5
    endloop
  endfacet
  facet normal 0 -1 0
    outer loop
      vertex 1.5 248.5 1.5
      vertex 98.5 248.5 70
      vertex 1.5 248.5 70
    endloop
  endfacet
  facet normal 0 -1 -0
    outer loop
      vertex 98.5 248.5 70
      vertex 1.5 248.5 1.5
      vertex 98.5 248.5 1.5
    endloop
  endfacet
  facet normal -0 0 1
    outer loop
      vertex 1.5 248.5 1.5
      vertex 98.5 1.5 1.5
      vertex 98.5 248.5 1.5
    endloop
  endfacet
  facet normal 0 0 1
    outer loop
      vertex 98.5 1.5 1.5
      vertex 1.5 248.5 1.5
      vertex 1.5 1.5 1.5
    endloop
  endfacet
endsolid OpenSCAD_Model
